{
	"asset":{
		"generator":"Khronos glTF Blender I/O v3.5.30",
		"version":"2.0"
	},
	"extensionsUsed":[
		"KHR_materials_clearcoat"
	],
	"scene":0,
	"scenes":[
		{
			"name":"Scene",
			"nodes":[
				0
			]
		}
	],
	"nodes":[
		{
			"mesh":0,
			"name":"Object_6",
			"rotation":[
				-0.5363337397575378,
				0.46280860900878906,
				0.47794315218925476,
				0.5193502306938171
			],
			"scale":[
				0.0025400000158697367,
				0.0025400000158697367,
				0.002539999783039093
			],
			"translation":[
				0,
				0.1542266607284546,
				0
			]
		}
	],
	"materials":[
		{
			"doubleSided":true,
			"extensions":{
				"KHR_materials_clearcoat":{
					"clearcoatFactor":0.2693140208721161,
					"clearcoatRoughnessFactor":0.03999999910593033
				}
			},
			"name":"blinn2SG",
			"pbrMetallicRoughness":{
				"baseColorFactor":[
					0.0029110386967658997,
					0.0025503789074718952,
					0.0025503789074718952,
					1
				],
				"metallicRoughnessTexture":{
					"index":0
				},
				"roughnessFactor":0.47464388608932495
			}
		}
	],
	"meshes":[
		{
			"name":"Object_4",
			"primitives":[
				{
					"attributes":{
						"POSITION":0,
						"TEXCOORD_0":1,
						"NORMAL":2
					},
					"indices":3,
					"material":0
				}
			]
		}
	],
	"textures":[
		{
			"sampler":0,
			"source":0
		}
	],
	"images":[
		{
			"mimeType":"image/png",
			"name":"blinn2SG_metallicRoughness",
			"uri":"blinn2SG_metallicRoughness.png"
		}
	],
	"accessors":[
		{
			"bufferView":0,
			"componentType":5126,
			"count":44957,
			"max":[
				217.91043090820312,
				358.41888427734375,
				288.56243896484375
			],
			"min":[
				-218.42723083496094,
				-108.6842041015625,
				-152.62611389160156
			],
			"type":"VEC3"
		},
		{
			"bufferView":1,
			"componentType":5126,
			"count":44957,
			"type":"VEC2"
		},
		{
			"bufferView":2,
			"componentType":5126,
			"count":44957,
			"type":"VEC3"
		},
		{
			"bufferView":3,
			"componentType":5123,
			"count":167736,
			"type":"SCALAR"
		}
	],
	"bufferViews":[
		{
			"buffer":0,
			"byteLength":539484,
			"byteOffset":0,
			"target":34962
		},
		{
			"buffer":0,
			"byteLength":359656,
			"byteOffset":539484,
			"target":34962
		},
		{
			"buffer":0,
			"byteLength":539484,
			"byteOffset":899140,
			"target":34962
		},
		{
			"buffer":0,
			"byteLength":335472,
			"byteOffset":1438624,
			"target":34963
		}
	],
	"samplers":[
		{
			"magFilter":9729,
			"minFilter":9987
		}
	],
	"buffers":[
		{
			"byteLength":1774096,
			"uri":"scene.bin"
		}
	]
}
