{
  "accessors": [
    {
      "bufferView": 2,
      "componentType": 5126,
      "count": 5768,
      "max": [
        76.27011108398438,
        -1349.0106201171875,
        118.27560424804688
      ],
      "min": [
        -79.42707824707031,
        -1354.71240234375,
        52.176422119140625
      ],
      "type": "VEC3"
    },
    {
      "bufferView": 2,
      "byteOffset": 69216,
      "componentType": 5126,
      "count": 5768,
      "max": [
        1.0,
        0.9974800944328308,
        0.9973483681678772
      ],
      "min": [
        -1.0,
        -0.9974586963653564,
        -0.9973490238189697
      ],
      "type": "VEC3"
    },
    {
      "bufferView": 1,
      "componentType": 5126,
      "count": 5768,
      "max": [
        0.35059499740600586,
        0.7586100101470947
      ],
      "min": [
        0.16330300271511078,
        0.678380012512207
      ],
      "type": "VEC2"
    },
    {
      "bufferView": 0,
      "componentType": 5125,
      "count": 13830,
      "type": "SCALAR"
    },
    {
      "bufferView": 2,
      "byteOffset": 138432,
      "componentType": 5126,
      "count": 10977,
      "max": [
        76.27015686035156,
        -1291.8841552734375,
        48.958274841308594
      ],
      "min": [
        -79.42706298828125,
        -1376.2381591796875,
        17.864730834960938
      ],
      "type": "VEC3"
    },
    {
      "bufferView": 2,
      "byteOffset": 270156,
      "componentType": 5126,
      "count": 10977,
      "max": [
        1.0,
        0.9409463405609131,
        0.9408688545227051
      ],
      "min": [
        -1.0,
        -0.940924346446991,
        -0.941211462020874
      ],
      "type": "VEC3"
    },
    {
      "bufferView": 1,
      "byteOffset": 46144,
      "componentType": 5126,
      "count": 10977,
      "max": [
        0.4092260003089905,
        0.9231510162353516
      ],
      "min": [
        0.252826988697052,
        0.8378710150718689
      ],
      "type": "VEC2"
    },
    {
      "bufferView": 0,
      "byteOffset": 55320,
      "componentType": 5125,
      "count": 16902,
      "type": "SCALAR"
    },
    {
      "bufferView": 2,
      "byteOffset": 401880,
      "componentType": 5126,
      "count": 4150,
      "max": [
        128.96414184570313,
        -932.3477172851563,
        431.26202392578125
      ],
      "min": [
        -128.96414184570313,
        -1395.9373779296875,
        29.93151092529297
      ],
      "type": "VEC3"
    },
    {
      "bufferView": 2,
      "byteOffset": 451680,
      "componentType": 5126,
      "count": 4150,
      "max": [
        1.0,
        0.9991164803504944,
        0.9999908804893494
      ],
      "min": [
        -1.0,
        -0.999732255935669,
        -0.9951174855232239
      ],
      "type": "VEC3"
    },
    {
      "bufferView": 1,
      "byteOffset": 133960,
      "componentType": 5126,
      "count": 4150,
      "max": [
        0.9935240149497986,
        0.9785730242729187
      ],
      "min": [
        0.020755000412464142,
        0.014662999659776688
      ],
      "type": "VEC2"
    },
    {
      "bufferView": 0,
      "byteOffset": 122928,
      "componentType": 5125,
      "count": 16284,
      "type": "SCALAR"
    },
    {
      "bufferView": 2,
      "byteOffset": 501480,
      "componentType": 5126,
      "count": 11181,
      "max": [
        127.86190032958984,
        -1041.63330078125,
        369.56195068359375
      ],
      "min": [
        -127.86073303222656,
        -1399.4505615234375,
        -9.926513671875
      ],
      "type": "VEC3"
    },
    {
      "bufferView": 2,
      "byteOffset": 635652,
      "componentType": 5126,
      "count": 11181,
      "max": [
        1.0,
        0.9999277591705322,
        1.0
      ],
      "min": [
        -1.0,
        -1.0,
        -1.0
      ],
      "type": "VEC3"
    },
    {
      "bufferView": 1,
      "byteOffset": 167160,
      "componentType": 5126,
      "count": 11181,
      "max": [
        0.9563959836959839,
        0.9908909797668457
      ],
      "min": [
        0.020810000598430634,
        0.034735001623630524
      ],
      "type": "VEC2"
    },
    {
      "bufferView": 0,
      "byteOffset": 188064,
      "componentType": 5125,
      "count": 63168,
      "type": "SCALAR"
    },
    {
      "bufferView": 2,
      "byteOffset": 769824,
      "componentType": 5126,
      "count": 9729,
      "max": [
        217.7227325439453,
        -934.9166259765625,
        429.3106689453125
      ],
      "min": [
        -218.61492919921875,
        -1394.2899169921875,
        26.271839141845703
      ],
      "type": "VEC3"
    },
    {
      "bufferView": 2,
      "byteOffset": 886572,
      "componentType": 5126,
      "count": 9729,
      "max": [
        0.9992901086807251,
        0.9975023865699768,
        0.9999996423721313
      ],
      "min": [
        -0.9992901086807251,
        -0.9999511241912842,
        -0.9999996423721313
      ],
      "type": "VEC3"
    },
    {
      "bufferView": 1,
      "byteOffset": 256608,
      "componentType": 5126,
      "count": 9729,
      "max": [
        0.9656829833984375,
        0.931128978729248
      ],
      "min": [
        0.3678550124168396,
        0.0140990000218153
      ],
      "type": "VEC2"
    },
    {
      "bufferView": 0,
      "byteOffset": 440736,
      "componentType": 5125,
      "count": 57552,
      "type": "SCALAR"
    }
  ],
  "asset": {
    "extras": {
      "author": "shaunwho (https://sketchfab.com/shaunwho)",
      "license": "CC-BY-4.0 (http://creativecommons.org/licenses/by/4.0/)",
      "source": "https://sketchfab.com/3d-models/darth-vader-helmet-6d4da7fbe3864661a1305c2feac01d8f",
      "title": "Darth Vader Helmet"
    },
    "generator": "Sketchfab-15.29.0",
    "version": "2.0"
  },
  "bufferViews": [
    {
      "buffer": 0,
      "byteLength": 670944,
      "name": "floatBufferViews",
      "target": 34963
    },
    {
      "buffer": 0,
      "byteLength": 334440,
      "byteOffset": 670944,
      "byteStride": 8,
      "name": "floatBufferViews",
      "target": 34962
    },
    {
      "buffer": 0,
      "byteLength": 1003320,
      "byteOffset": 1005384,
      "byteStride": 12,
      "name": "floatBufferViews",
      "target": 34962
    }
  ],
  "buffers": [
    {
      "byteLength": 2008704,
      "uri": "scene.bin"
    }
  ],
  "extensionsUsed": [
    "KHR_materials_clearcoat"
  ],
  "images": [
    {
      "uri": "textures/blinn2SG_metallicRoughness.png"
    }
  ],
  "materials": [
    {
      "doubleSided": true,
      "extensions": {
        "KHR_materials_clearcoat": {
          "clearcoatFactor": 0.2693140144110552,
          "clearcoatRoughnessFactor": 0.04
        }
      },
      "name": "blinn2SG",
      "pbrMetallicRoughness": {
        "baseColorFactor": [
          0.0029110386585933868,
          0.002550379001776507,
          0.002550379001776507,
          1.0
        ],
        "metallicRoughnessTexture": {
          "index": 0
        },
        "roughnessFactor": 0.47464387995110385
      }
    }
  ],
  "meshes": [
    {
      "name": "Object_0",
      "primitives": [
        {
          "attributes": {
            "NORMAL": 1,
            "POSITION": 0,
            "TEXCOORD_0": 2
          },
          "indices": 3,
          "material": 0,
          "mode": 4
        }
      ]
    },
    {
      "name": "Object_1",
      "primitives": [
        {
          "attributes": {
            "NORMAL": 5,
            "POSITION": 4,
            "TEXCOORD_0": 6
          },
          "indices": 7,
          "material": 0,
          "mode": 4
        }
      ]
    },
    {
      "name": "Object_2",
      "primitives": [
        {
          "attributes": {
            "NORMAL": 9,
            "POSITION": 8,
            "TEXCOORD_0": 10
          },
          "indices": 11,
          "material": 0,
          "mode": 4
        }
      ]
    },
    {
      "name": "Object_3",
      "primitives": [
        {
          "attributes": {
            "NORMAL": 13,
            "POSITION": 12,
            "TEXCOORD_0": 14
          },
          "indices": 15,
          "material": 0,
          "mode": 4
        }
      ]
    },
    {
      "name": "Object_4",
      "primitives": [
        {
          "attributes": {
            "NORMAL": 17,
            "POSITION": 16,
            "TEXCOORD_0": 18
          },
          "indices": 19,
          "material": 0,
          "mode": 4
        }
      ]
    }
  ],
  "nodes": [
    {
      "children": [
        1
      ],
      "matrix": [
        1.0,
        0.0,
        0.0,
        0.0,
        0.0,
        2.220446049250313e-16,
        -1.0,
        0.0,
        0.0,
        1.0,
        2.220446049250313e-16,
        0.0,
        0.0,
        0.0,
        0.0,
        1.0
      ],
      "name": "Sketchfab_model"
    },
    {
      "children": [
        2,
        3,
        4,
        5,
        6
      ],
      "name": "VADER_05.obj.cleaner.materialmerger.gles"
    },
    {
      "mesh": 0,
      "name": "Object_2"
    },
    {
      "mesh": 1,
      "name": "Object_3"
    },
    {
      "mesh": 2,
      "name": "Object_4"
    },
    {
      "mesh": 3,
      "name": "Object_5"
    },
    {
      "mesh": 4,
      "name": "Object_6"
    }
  ],
  "samplers": [
    {
      "magFilter": 9729,
      "minFilter": 9987,
      "wrapS": 10497,
      "wrapT": 10497
    }
  ],
  "scene": 0,
  "scenes": [
    {
      "name": "Sketchfab_Scene",
      "nodes": [
        0
      ]
    }
  ],
  "textures": [
    {
      "sampler": 0,
      "source": 0
    }
  ]
}
