{
  "accessors": [
    {
      "bufferView": 2,
      "componentType": 5126,
      "count": 4325,
      "max": [
        39.9931640625,
        39.9931640625,
        -0.2780342996120453
      ],
      "min": [
        -39.9931640625,
        -39.9931640625,
        -37.57404327392578
      ],
      "type": "VEC3"
    },
    {
      "bufferView": 2,
      "byteOffset": 51900,
      "componentType": 5126,
      "count": 4325,
      "max": [
        0.9999998807907104,
        0.9999998807907104,
        0.9322079420089722
      ],
      "min": [
        -0.9999998211860657,
        -0.9999998807907104,
        -1.0
      ],
      "type": "VEC3"
    },
    {
      "bufferView": 1,
      "componentType": 5126,
      "count": 4325,
      "max": [
        1.000000238418579,
        0.5
      ],
      "min": [
        0.0,
        0.125
      ],
      "type": "VEC2"
    },
    {
      "bufferView": 0,
      "componentType": 5125,
      "count": 25344,
      "type": "SCALAR"
    },
    {
      "bufferView": 2,
      "byteOffset": 103800,
      "componentType": 5126,
      "count": 678,
      "max": [
        15.940805435180664,
        13.831613540649414,
        2.3463997840881348
      ],
      "min": [
        -26.615924835205078,
        -21.009382247924805,
        -2.3463997840881348
      ],
      "type": "VEC3"
    },
    {
      "bufferView": 2,
      "byteOffset": 111936,
      "componentType": 5126,
      "count": 678,
      "max": [
        0.9998514652252197,
        0.9999985098838806,
        1.0
      ],
      "min": [
        -0.999851405620575,
        -0.9999984502792358,
        -1.0
      ],
      "type": "VEC3"
    },
    {
      "bufferView": 0,
      "byteOffset": 101376,
      "componentType": 5125,
      "count": 3771,
      "type": "SCALAR"
    },
    {
      "bufferView": 2,
      "byteOffset": 120072,
      "componentType": 5126,
      "count": 631,
      "max": [
        52.56708526611328,
        52.56092834472656,
        5.928464889526367
      ],
      "min": [
        -52.56708526611328,
        -52.56092834472656,
        0.0
      ],
      "type": "VEC3"
    },
    {
      "bufferView": 2,
      "byteOffset": 127644,
      "componentType": 5126,
      "count": 631,
      "max": [
        0.9853382110595703,
        0.9853129982948303,
        1.0
      ],
      "min": [
        -0.9853380918502808,
        -0.9853129982948303,
        -1.0
      ],
      "type": "VEC3"
    },
    {
      "bufferView": 1,
      "byteOffset": 34600,
      "componentType": 5126,
      "count": 631,
      "max": [
        0.9722222089767456,
        1.0000004768371582
      ],
      "min": [
        -0.027777791023254395,
        0.0
      ],
      "type": "VEC2"
    },
    {
      "bufferView": 0,
      "byteOffset": 116460,
      "componentType": 5125,
      "count": 3672,
      "type": "SCALAR"
    },
    {
      "bufferView": 2,
      "byteOffset": 135216,
      "componentType": 5126,
      "count": 89,
      "max": [
        38.23548889160156,
        38.23548889160156,
        -3.797130584716797
      ],
      "min": [
        -38.23548889160156,
        -38.23548889160156,
        -3.7971315383911133
      ],
      "type": "VEC3"
    },
    {
      "bufferView": 2,
      "byteOffset": 136284,
      "componentType": 5126,
      "count": 89,
      "max": [
        2.0686792367996532e-07,
        3.120481437690614e-07,
        1.0
      ],
      "min": [
        -2.0686887580723123e-07,
        -8.191677380864348e-08,
        1.0
      ],
      "type": "VEC3"
    },
    {
      "bufferView": 1,
      "byteOffset": 39648,
      "componentType": 5126,
      "count": 89,
      "max": [
        0.6945914030075073,
        0.7242296934127808
      ],
      "min": [
        0.29549604654312134,
        0.1927468180656433
      ],
      "type": "VEC2"
    },
    {
      "bufferView": 0,
      "byteOffset": 131148,
      "componentType": 5125,
      "count": 90,
      "type": "SCALAR"
    }
  ],
  "asset": {
    "extras": {
      "author": "Rosnandie Yikie (https://sketchfab.com/rosnandie.yikie)",
      "license": "CC-BY-4.0 (http://creativecommons.org/licenses/by/4.0/)",
      "source": "https://sketchfab.com/3d-models/coffee-963a9e5d288c42509886c5efd4fedd3c",
      "title": "Coffee"
    },
    "generator": "Sketchfab-12.68.0",
    "version": "2.0"
  },
  "bufferViews": [
    {
      "buffer": 0,
      "byteLength": 131508,
      "name": "floatBufferViews",
      "target": 34963
    },
    {
      "buffer": 0,
      "byteLength": 40360,
      "byteOffset": 131508,
      "byteStride": 8,
      "name": "floatBufferViews",
      "target": 34962
    },
    {
      "buffer": 0,
      "byteLength": 137352,
      "byteOffset": 171868,
      "byteStride": 12,
      "name": "floatBufferViews",
      "target": 34962
    }
  ],
  "buffers": [
    {
      "byteLength": 309220,
      "uri": "scene.bin"
    }
  ],
  "images": [
    {
      "uri": "textures/Material_26_baseColor.jpeg"
    }
  ],
  "materials": [
    {
      "doubleSided": true,
      "name": "Material_28",
      "pbrMetallicRoughness": {
        "baseColorFactor": [
          0.588,
          0.588,
          0.588,
          1.0
        ],
        "metallicFactor": 0.0,
        "roughnessFactor": 0.0
      }
    },
    {
      "doubleSided": true,
      "name": "Material_29",
      "pbrMetallicRoughness": {
        "baseColorFactor": [
          0.588,
          0.588,
          0.588,
          1.0
        ],
        "metallicFactor": 0.0,
        "roughnessFactor": 0.0
      }
    },
    {
      "doubleSided": true,
      "name": "Material_30",
      "pbrMetallicRoughness": {
        "baseColorFactor": [
          0.588,
          0.588,
          0.588,
          1.0
        ],
        "metallicFactor": 0.0,
        "roughnessFactor": 0.0
      }
    },
    {
      "doubleSided": true,
      "name": "Material_26",
      "pbrMetallicRoughness": {
        "baseColorTexture": {
          "index": 0
        },
        "metallicFactor": 0.0
      }
    }
  ],
  "meshes": [
    {
      "name": "Sphere001_Material #28_0",
      "primitives": [
        {
          "attributes": {
            "NORMAL": 1,
            "POSITION": 0,
            "TEXCOORD_0": 2
          },
          "indices": 3,
          "material": 0,
          "mode": 4
        }
      ]
    },
    {
      "name": "Line001_Material #29_0",
      "primitives": [
        {
          "attributes": {
            "NORMAL": 5,
            "POSITION": 4
          },
          "indices": 6,
          "material": 1,
          "mode": 4
        }
      ]
    },
    {
      "name": "Cylinder001_Material #30_0",
      "primitives": [
        {
          "attributes": {
            "NORMAL": 8,
            "POSITION": 7,
            "TEXCOORD_0": 9
          },
          "indices": 10,
          "material": 2,
          "mode": 4
        }
      ]
    },
    {
      "name": "Object001_Material #26_0",
      "primitives": [
        {
          "attributes": {
            "NORMAL": 12,
            "POSITION": 11,
            "TEXCOORD_0": 13
          },
          "indices": 14,
          "material": 3,
          "mode": 4
        }
      ]
    }
  ],
  "nodes": [
    {
      "children": [
        1
      ],
      "matrix": [
        0.8438662886619568,
        1.1913881039112278e-16,
        -0.5365535020828247,
        0.0,
        -0.5365535020828247,
        1.8737595667549662e-16,
        -0.8438662886619568,
        0.0,
        0.0,
        1.0,
        2.220446049250313e-16,
        0.0,
        2.851045608520508,
        1.1365080451652336e-16,
        -0.5118377208709717,
        1.0
      ],
      "name": "Sketchfab_model"
    },
    {
      "children": [
        2
      ],
      "matrix": [
        1.0,
        0.0,
        0.0,
        0.0,
        0.0,
        0.0,
        1.0,
        0.0,
        0.0,
        -1.0,
        0.0,
        0.0,
        0.0,
        0.0,
        0.0,
        1.0
      ],
      "name": "3be3161c87db470ead8104307ac9192e.fbx"
    },
    {
      "children": [
        3,
        5,
        7,
        9
      ],
      "name": "RootNode"
    },
    {
      "children": [
        4
      ],
      "matrix": [
        1.0,
        0.0,
        0.0,
        0.0,
        0.0,
        2.220446049250313e-16,
        -1.0,
        0.0,
        0.0,
        1.0,
        2.220446049250313e-16,
        0.0,
        0.33519113063812256,
        38.269615173339844,
        -6.541126251220703,
        1.0
      ],
      "name": "Sphere001"
    },
    {
      "mesh": 0,
      "name": "Sphere001_Material #28_0"
    },
    {
      "children": [
        6
      ],
      "matrix": [
        1.6292068460987963e-07,
        0.0,
        0.9999999999999867,
        0.0,
        -4.371138822550499e-08,
        0.999999999999999,
        7.121489295963928e-15,
        0.0,
        -0.9999999999999858,
        -4.371138822550557e-08,
        1.6292068460987963e-07,
        0.0,
        -9.535872322885552e-07,
        21.822357177734375,
        33.97183609008789,
        1.0
      ],
      "name": "Line001"
    },
    {
      "mesh": 1,
      "name": "Line001_Material #29_0"
    },
    {
      "children": [
        8
      ],
      "matrix": [
        1.0,
        0.0,
        0.0,
        0.0,
        0.0,
        2.220446049250313e-16,
        -1.0,
        0.0,
        0.0,
        1.0,
        2.220446049250313e-16,
        0.0,
        0.5460958480834961,
        0.0,
        -7.661205291748047,
        1.0
      ],
      "name": "Cylinder001"
    },
    {
      "mesh": 2,
      "name": "Cylinder001_Material #30_0"
    },
    {
      "children": [
        10
      ],
      "matrix": [
        1.0,
        0.0,
        0.0,
        0.0,
        0.0,
        2.220446049250313e-16,
        -1.0,
        0.0,
        0.0,
        1.0,
        2.220446049250313e-16,
        0.0,
        0.33519113063812256,
        38.269615173339844,
        -6.541126251220703,
        1.0
      ],
      "name": "Object001"
    },
    {
      "mesh": 3,
      "name": "Object001_Material #26_0"
    }
  ],
  "samplers": [
    {
      "magFilter": 9729,
      "minFilter": 9987,
      "wrapS": 10497,
      "wrapT": 10497
    }
  ],
  "scene": 0,
  "scenes": [
    {
      "name": "Sketchfab_Scene",
      "nodes": [
        0
      ]
    }
  ],
  "textures": [
    {
      "sampler": 0,
      "source": 0
    }
  ]
}
